<svg xmlns="http://www.w3.org/2000/svg" xmlns:xlink="http://www.w3.org/1999/xlink" id="svg-source" width="28" height="28" x="0" y="0" enable-background="new 163.2 130 28 28" version="1.1" viewBox="163.2 130 28 28" xml:space="preserve"><g id="disc-arrow"><path id="stroke" d="M191.2,144c0,7.7-6.3,14-14,14s-14-6.3-14-14 s6.3-14,14-14S191.2,136.3,191.2,144z M167.2,144c0,5.5,4.5,10,10,10s10-4.5,10-10s-4.5-10-10-10S167.2,138.5,167.2,144z" enable-background="new" opacity=".3"/><path id="arrow" d="M165.7,144c0,6.4,5.1,11.5,11.5,11.5s11.5-5.1,11.5-11.5s-5.1-11.5-11.5-11.5 C170.9,132.5,165.7,137.7,165.7,144z M175.4,138.6l6.2,5.4l-6.2,5.4c-0.5,0.4-1.3,0.4-1.7-0.1s-0.4-1.3,0.1-1.7l4.1-3.6l-4.1-3.6 c-0.5-0.4-0.6-1.2-0.1-1.7C174.2,138.2,174.9,138.2,175.4,138.6z"/></g></svg>